<svg width="56" height="56" viewBox="0 0 56 56" fill="none" xmlns="http://www.w3.org/2000/svg">
<path d="M21 36V35C21 33.1435 21.7375 31.363 23.0503 30.0503C24.363 28.7375 26.1435 28 28 28M28 28C29.8565 28 31.637 28.7375 32.9497 30.0503C34.2625 31.363 35 33.1435 35 35V36M28 28C29.0609 28 30.0783 27.5786 30.8284 26.8284C31.5786 26.0783 32 25.0609 32 24C32 22.9391 31.5786 21.9217 30.8284 21.1716C30.0783 20.4214 29.0609 20 28 20C26.9391 20 25.9217 20.4214 25.1716 21.1716C24.4214 21.9217 24 22.9391 24 24C24 25.0609 24.4214 26.0783 25.1716 26.8284C25.9217 27.5786 26.9391 28 28 28Z" stroke="#2C3E50" stroke-opacity="0.56" stroke-linecap="round" stroke-linejoin="round"/>
<rect x="0.5" y="0.5" width="55" height="55" rx="27.5" stroke="#2C3E50" stroke-opacity="0.12"/>
</svg>
