<svg width="32" height="32" viewBox="0 0 32 32" fill="none" xmlns="http://www.w3.org/2000/svg">
<path d="M20 5.33329V2.66663M20 5.33329V7.99996M20 5.33329H14M4 13.3333V25.3333C4 26.0405 4.28095 26.7188 4.78105 27.2189C5.28115 27.719 5.95942 28 6.66667 28H25.3333C26.0406 28 26.7189 27.719 27.219 27.2189C27.719 26.7188 28 26.0405 28 25.3333V13.3333M4 13.3333H28M4 13.3333V7.99996C4 7.29272 4.28095 6.61444 4.78105 6.11434C5.28115 5.61424 5.95942 5.33329 6.66667 5.33329H9.33333M28 13.3333V7.99996C28 7.29272 27.719 6.61444 27.219 6.11434C26.7189 5.61424 26.0406 5.33329 25.3333 5.33329H24.6667M9.33333 2.66663V7.99996" stroke="black" strokeWidth="2.13333" strokeLinecap="round" strokeLinejoin="round"/>
</svg>
