<svg width="32" height="32" viewBox="0 0 32 32" fill="none" xmlns="http://www.w3.org/2000/svg">
<path d="M9.33301 2.66663H21.9997L27.9997 8.66663V25.3333" stroke="black" strokeWidth="2.13333" strokeLinecap="round" strokeLinejoin="round"/>
<path d="M4 27.3333V8.66663C4 8.13619 4.21071 7.62748 4.58579 7.25241C4.96086 6.87734 5.46957 6.66663 6 6.66663H19.0027C19.2148 6.66681 19.4181 6.75122 19.568 6.90129L23.7653 11.0986C23.84 11.1732 23.8991 11.2617 23.9394 11.3592C23.9797 11.4567 24.0003 11.5612 24 11.6666V27.3333C24 27.8637 23.7893 28.3724 23.4142 28.7475C23.0391 29.1226 22.5304 29.3333 22 29.3333H6C5.46957 29.3333 4.96086 29.1226 4.58579 28.7475C4.21071 28.3724 4 27.8637 4 27.3333Z" stroke="black" strokeWidth="2.13333" strokeLinecap="round" strokeLinejoin="round"/>
<path d="M18.667 6.66663V11.2C18.667 11.4121 18.7513 11.6156 18.9013 11.7656C19.0513 11.9157 19.2548 12 19.467 12H24.0003" stroke="black" strokeWidth="2.13333" strokeLinecap="round" strokeLinejoin="round"/>
</svg>
