<svg width="32" height="32" viewBox="0 0 32 32" fill="none" xmlns="http://www.w3.org/2000/svg">
<path d="M26.6663 13.3333C26.6663 19.224 15.9997 29.3333 15.9997 29.3333C15.9997 29.3333 5.33301 19.224 5.33301 13.3333C5.33301 10.5043 6.45681 7.79121 8.4572 5.79082C10.4576 3.79043 13.1707 2.66663 15.9997 2.66663C18.8287 2.66663 21.5418 3.79043 23.5421 5.79082C25.5425 7.79121 26.6663 10.5043 26.6663 13.3333Z" stroke="black" strokeWidth="2.13333"/>
<path d="M16.0003 14.6667C16.3539 14.6667 16.6931 14.5262 16.9431 14.2761C17.1932 14.0261 17.3337 13.687 17.3337 13.3333C17.3337 12.9797 17.1932 12.6406 16.9431 12.3905C16.6931 12.1405 16.3539 12 16.0003 12C15.6467 12 15.3076 12.1405 15.0575 12.3905C14.8075 12.6406 14.667 12.9797 14.667 13.3333C14.667 13.687 14.8075 14.0261 15.0575 14.2761C15.3076 14.5262 15.6467 14.6667 16.0003 14.6667Z" fill="black" stroke="black" strokeWidth="2.13333" strokeLinecap="round" strokeLinejoin="round"/>
</svg>
