<svg width="24" height="24" viewBox="0 0 24 24" fill="none" xmlns="http://www.w3.org/2000/svg">
<path d="M14.44 6.06607L15.92 4.58607C16.1057 4.40027 16.3262 4.25288 16.5689 4.15232C16.8116 4.05176 17.0717 4 17.3345 4C17.5972 4 17.8573 4.05176 18.1 4.15232C18.3427 4.25288 18.5632 4.40027 18.749 4.58607L20.163 6.00007C20.5379 6.37513 20.7485 6.88374 20.7485 7.41407C20.7485 7.9444 20.5379 8.45302 20.163 8.82807L18.683 10.3081M14.44 6.06607L4.82396 15.6811C4.49194 16.0131 4.28733 16.4514 4.24596 16.9191L4.00396 19.6591C3.99096 19.8047 4.01007 19.9515 4.05993 20.0889C4.1098 20.2264 4.18921 20.3513 4.29257 20.4547C4.39593 20.5582 4.52071 20.6377 4.65814 20.6877C4.79557 20.7377 4.94229 20.7569 5.08796 20.7441L7.82796 20.5021C8.29638 20.4612 8.73542 20.2565 9.06796 19.9241L18.683 10.3081M14.44 6.06607L18.683 10.3081" stroke="#1D92F8" stroke-width="1.6" stroke-linecap="round" stroke-linejoin="round"/>
</svg>
