<svg width="161" height="64" viewBox="0 0 161 64" fill="none" xmlns="http://www.w3.org/2000/svg">
<path d="M32 25.0027C30.6161 25.0027 29.2632 25.4131 28.1125 26.1819C26.9618 26.9508 26.0649 28.0436 25.5353 29.3222C25.0057 30.6008 24.8671 32.0078 25.1371 33.3651C25.4071 34.7225 26.0735 35.9693 27.0521 36.9479C28.0307 37.9265 29.2775 38.5929 30.6349 38.8629C31.9922 39.1329 33.3992 38.9943 34.6778 38.4647C35.9564 37.9351 37.0492 37.0382 37.8181 35.8875C38.5869 34.7368 38.9973 33.3839 38.9973 32C38.9973 30.1442 38.2601 28.3644 36.9479 27.0521C35.6356 25.7399 33.8558 25.0027 32 25.0027ZM7.08267 32C7.08267 25.3915 9.70788 19.0537 14.3808 14.3808C19.0537 9.70788 25.3915 7.08267 32 7.08267V0C14.336 0 0 14.336 0 32C0 49.664 14.336 64 32 64V56.9173C25.3915 56.9173 19.0537 54.2921 14.3808 49.6192C9.70788 44.9463 7.08267 38.6085 7.08267 32ZM32 40.8747C30.2448 40.8747 28.5289 40.3542 27.0695 39.379C25.6101 38.4039 24.4726 37.0178 23.8009 35.3962C23.1292 33.7746 22.9534 31.9902 23.2959 30.2686C23.6383 28.5471 24.4835 26.9658 25.7247 25.7247C26.9658 24.4835 28.5471 23.6383 30.2686 23.2959C31.9902 22.9534 33.7746 23.1292 35.3962 23.8009C37.0178 24.4726 38.4039 25.6101 39.379 27.0695C40.3542 28.5289 40.8747 30.2448 40.8747 32H47.9573C47.9573 28.8439 47.0215 25.7588 45.268 23.1346C43.5146 20.5104 41.0224 18.4651 38.1066 17.2573C35.1908 16.0496 31.9823 15.7336 28.8869 16.3493C25.7915 16.965 22.9481 18.4848 20.7165 20.7165C18.4848 22.9481 16.965 25.7915 16.3493 28.8869C15.7336 31.9823 16.0496 35.1908 17.2573 38.1066C18.4651 41.0224 20.5104 43.5146 23.1346 45.268C25.7588 47.0215 28.8439 47.9573 32 47.9573V40.8747ZM32 7.08267V14.1653C36.73 14.1653 41.2664 16.0443 44.611 19.389C47.9557 22.7336 49.8347 27.27 49.8347 32C49.8347 36.73 47.9557 41.2664 44.611 44.611C41.2664 47.9557 36.73 49.8347 32 49.8347V56.9173C38.6085 56.9173 44.9463 54.2921 49.6192 49.6192C54.2921 44.9463 56.9173 38.6085 56.9173 32C56.9173 25.3915 54.2921 19.0537 49.6192 14.3808C44.9463 9.70788 38.6085 7.08267 32 7.08267ZM71.6885 43.5934H71.6646L69.0927 38.8267H67.6062L71.0059 45.0202L70.9581 45.1055C70.6287 45.7745 70.2259 46.2268 69.4101 46.2268C69.1709 46.2245 68.9329 46.1918 68.7019 46.1295V47.2986C68.9809 47.4109 69.2801 47.4649 69.5808 47.4573C70.7755 47.4573 71.5912 46.7627 72.1766 45.4707L75.1633 38.8267H73.786L71.6885 43.5934ZM82.3398 42.4226H78.1329V38.8267H76.8V47.36H78.1397V43.6412H82.3467V47.36H83.6864V38.8267H82.3467L82.3398 42.4226ZM87.5401 45.1652H87.5042V38.8267H86.1628V47.36H87.3813L92.0491 41.0214H92.0747V47.36H93.4144V38.8267H92.1958L87.5401 45.1652ZM100.813 42.7759C101.134 42.6254 101.405 42.3855 101.593 42.0848C101.781 41.7842 101.878 41.4357 101.873 41.0812C101.873 39.8626 100.837 38.8267 99.3126 38.8267H95.8993V47.36H99.4987C101.146 47.36 102.303 46.2012 102.303 44.8614C102.299 43.7402 101.434 43.008 100.813 42.7759ZM97.2407 39.9855H99.3126C100.045 39.9855 100.531 40.4719 100.531 41.1426C100.531 41.8133 100.045 42.3014 99.3126 42.3014H97.2407V39.9855ZM99.4987 46.2012H97.2407V43.3988H99.4987C100.352 43.3988 100.961 44.0081 100.961 44.8C100.961 45.5919 100.352 46.2012 99.4987 46.2012ZM105.643 43.5439H109.361V42.3253H105.632V40.0452H110.326V38.8267H104.293V47.36H110.449V46.1414H105.632L105.643 43.5439ZM115.693 38.8267H112.28V47.36H113.62V44.3119H115.693C117.338 44.3119 118.557 43.0933 118.557 41.5693C118.557 40.0452 117.328 38.8267 115.683 38.8267H115.693ZM115.693 43.0933H113.609V40.0452H115.683C116.087 40.0452 116.475 40.2058 116.761 40.4916C117.046 40.7774 117.207 41.1651 117.207 41.5693C117.207 41.9735 117.046 42.3611 116.761 42.6469C116.475 42.9328 116.087 43.0933 115.683 43.0933H115.693ZM124.5 46.2626C123.659 46.2626 122.853 45.9287 122.259 45.3344C121.664 44.74 121.33 43.9339 121.33 43.0933C121.33 42.2528 121.664 41.4467 122.259 40.8523C122.853 40.258 123.659 39.9241 124.5 39.9241C124.984 39.9178 125.464 40.021 125.903 40.2257C126.342 40.4305 126.729 40.7316 127.036 41.1068L127.974 40.3388C127.553 39.8256 127.022 39.4127 126.421 39.1302C125.82 38.8477 125.164 38.7026 124.5 38.7055C121.94 38.7055 119.989 40.6545 119.989 43.0933C119.989 45.5322 121.94 47.4812 124.5 47.4812C125.176 47.4815 125.843 47.332 126.454 47.0434C127.065 46.7547 127.605 46.3342 128.034 45.812L127.095 45.0441C126.587 45.6038 125.805 46.2626 124.489 46.2626H124.5ZM131.132 45.1652H131.094V38.8267H129.753V47.36H130.973L135.641 41.0214H135.666V47.36H137.006V38.8267H135.788L131.132 45.1652ZM138.663 40.0452H141.223V47.36H142.565V40.0452H145.125V38.8267H138.653L138.663 40.0452ZM148.115 43.5439H151.834V42.3253H148.105V40.0452H152.798V38.8267H146.763V47.36H152.917V46.1414H148.105L148.115 43.5439ZM154.245 38.8267V40.0452H156.805V47.36H158.147V40.0452H160.707V38.8267H154.245ZM77.4451 23.6373L69.1524 14.7234H67.84V32H71.4769V22.272L76.9263 27.9893H77.9503L83.3997 22.2686V31.9966H87.0366V14.7302H85.7259L77.4451 23.6373ZM94.0339 25.187V14.9333H90.3987V32.2031H91.805L102.4 21.7412V32H106.035V14.7302H104.629L94.0339 25.187ZM117.267 18.0395C119.156 18.0395 120.841 19.0635 121.946 20.7428L124.506 18.2682C123.679 17.1207 122.592 16.1855 121.333 15.5391C120.075 14.8927 118.681 14.5535 117.267 14.5493C112.355 14.5493 108.221 18.4235 108.221 23.4598C108.221 28.4962 112.364 32.3703 117.267 32.3703C118.681 32.3661 120.075 32.027 121.333 31.3806C122.592 30.7342 123.679 29.799 124.506 28.6515L121.946 26.1769C120.841 27.8562 119.156 28.8802 117.267 28.8802C114.333 28.8802 111.944 26.6308 111.944 23.4598C111.944 20.2889 114.323 18.0463 117.257 18.0463L117.267 18.0395ZM130.468 25.187V14.9333H126.821V32.2031H128.229L138.837 21.7412V32H142.474V14.7302H141.066L130.468 25.187ZM153.701 28.8802C150.765 28.8802 148.378 26.6308 148.378 23.4598C148.378 20.2889 150.767 18.0395 153.701 18.0395C155.59 18.0395 157.274 19.0635 158.379 20.7428L160.939 18.2682C160.111 17.1209 159.024 16.1858 157.765 15.5395C156.507 14.8931 155.114 14.5538 153.699 14.5493C148.785 14.5493 144.643 18.4235 144.643 23.4598C144.643 28.4962 148.785 32.3703 153.699 32.3703C155.113 32.3666 156.506 32.0284 157.764 31.3832C159.023 30.7381 160.11 29.8044 160.939 28.6583L158.379 26.1837C157.264 27.863 155.58 28.887 153.69 28.887L153.701 28.8802Z" fill="black"/>
</svg>
