<svg xmlns="http://www.w3.org/2000/svg" width="159" height="64" fill="none">
  <g clip-path="url(#a)">
    <path fill="url(#b)" d="M31.135 55.392a23.232 23.232 0 0 1-16.465-6.851A23.447 23.447 0 0 1 7.85 32a23.447 23.447 0 0 1 6.82-16.541 23.232 23.232 0 0 1 16.465-6.852V.671C13.92.67-.05 14.706-.05 32S13.92 63.33 31.135 63.33v-7.938Z"/>
    <path fill="url(#c)" d="M31.135 39.519c4.134 0 7.485-3.366 7.485-7.519 0-4.153-3.351-7.519-7.485-7.519S23.65 27.847 23.65 32c0 4.153 3.351 7.519 7.485 7.519Z"/>
    <path fill="url(#d)" d="M31.135 8.607v7.937c4.08 0 7.994 1.628 10.879 4.527A15.492 15.492 0 0 1 46.52 32c0 4.1-1.62 8.03-4.506 10.929a15.349 15.349 0 0 1-10.879 4.527v7.936A23.232 23.232 0 0 0 47.6 48.541 23.447 23.447 0 0 0 54.42 32a23.447 23.447 0 0 0-6.82-16.541 23.232 23.232 0 0 0-16.465-6.852Z"/>
    <path fill="url(#e)" d="M31.135 39.519a7.46 7.46 0 0 1-4.158-1.267c-1.231-.826-2.19-2-2.757-3.375a7.551 7.551 0 0 1 1.622-8.194A7.453 7.453 0 0 1 34 25.053a7.493 7.493 0 0 1 3.36 2.77A7.544 7.544 0 0 1 38.618 32h7.901c0-3.057-.902-6.045-2.593-8.587a15.4 15.4 0 0 0-6.904-5.692 15.32 15.32 0 0 0-8.89-.88 15.363 15.363 0 0 0-7.877 4.23 15.477 15.477 0 0 0-4.21 7.914 15.521 15.521 0 0 0 .875 8.93 15.441 15.441 0 0 0 5.666 6.936 15.335 15.335 0 0 0 8.548 2.605v-7.937Z"/>
    <path fill="#505569" d="M69.814 43.35h-.023l-2.507-4.666h-1.449l3.314 6.063-.047.084c-.32.655-.713 1.098-1.508 1.098a2.746 2.746 0 0 1-.69-.096v1.145c.271.11.563.163.856.155 1.164 0 1.96-.68 2.53-1.945l2.91-6.504h-1.342l-2.044 4.666Zm10.38-1.146h-4.1v-3.52h-1.299v8.354h1.306v-3.64h4.1v3.64h1.306v-8.354H80.2l-.007 3.52Zm5.068 2.685h-.035v-6.205H83.92v8.354h1.188l4.549-6.206h.025v6.206h1.305v-8.354H89.8l-4.538 6.205Zm12.936-2.339a1.797 1.797 0 0 0 1.032-1.66c0-1.192-1.01-2.206-2.495-2.206H93.41v8.354h3.508c1.605 0 2.733-1.134 2.733-2.446-.004-1.098-.847-1.815-1.453-2.042Zm-3.482-2.732h2.02c.713 0 1.187.476 1.187 1.133s-.474 1.135-1.188 1.135h-2.019v-2.268Zm2.2 6.086h-2.2V43.16h2.2c.832 0 1.426.597 1.426 1.372 0 .775-.594 1.372-1.425 1.372Zm5.988-2.602h3.625v-1.193h-3.635v-2.232h4.574v-1.193h-5.879v8.354h5.999v-1.193h-4.694l.01-2.543Zm9.795-4.618h-3.326v8.354h1.306v-2.984h2.02c1.604 0 2.791-1.193 2.791-2.685s-1.197-2.685-2.801-2.685h.01Zm0 4.177h-2.03v-2.984h2.02c.394 0 .772.157 1.051.437a1.498 1.498 0 0 1 0 2.11c-.279.28-.657.437-1.051.437h.01Zm8.583 3.103a3.081 3.081 0 0 1-2.184-.91 3.111 3.111 0 0 1 0-4.387 3.081 3.081 0 0 1 2.184-.909 3.126 3.126 0 0 1 2.471 1.158l.915-.752a4.343 4.343 0 0 0-3.386-1.599c-2.495 0-4.396 1.908-4.396 4.296 0 2.388 1.901 4.296 4.396 4.296a4.44 4.44 0 0 0 3.444-1.634l-.914-.752c-.496.548-1.258 1.193-2.54 1.193h.01Zm6.463-1.075h-.036v-6.205h-1.308v8.354h1.19l4.549-6.206h.025v6.206h1.305v-8.354h-1.187l-4.538 6.205Zm7.34-5.012h2.495v7.161h1.307v-7.161h2.495v-1.193h-6.307l.01 1.193Zm9.211 3.425h3.625v-1.193h-3.635v-2.232h4.574v-1.193h-5.881v8.354h5.998v-1.193h-4.691l.01-2.543Zm5.975-4.618v1.193h2.495v7.161h1.307v-7.161h2.495v-1.193h-6.297ZM75.414 23.82l-8.082-8.728h-1.268V32h3.544v-9.524l5.31 5.598h.999l5.31-5.601v9.524h3.545V15.092h-1.278l-8.08 8.727Zm16.167 1.517V15.29h-3.543V32.2h1.371l10.335-10.243V32h3.543V15.092h-1.37L91.581 25.337Zm22.642-6.998c1.841 0 3.483 1.002 4.561 2.647l2.495-2.423a8.743 8.743 0 0 0-3.093-2.672 8.696 8.696 0 0 0-3.963-.97c-4.787 0-8.815 3.794-8.815 8.725 0 4.93 4.037 8.723 8.815 8.723a8.696 8.696 0 0 0 3.963-.969 8.743 8.743 0 0 0 3.093-2.671l-2.495-2.423c-1.078 1.644-2.72 2.646-4.561 2.646-2.859 0-5.188-2.202-5.188-5.306 0-3.105 2.329-5.307 5.188-5.307Zm12.865 6.998V15.29h-3.544V32.2h1.372l10.339-10.243V32h3.544V15.092h-1.372l-10.339 10.245Zm22.642 3.615c-2.86 0-5.187-2.202-5.187-5.306 0-3.105 2.328-5.307 5.187-5.307 1.842 0 3.483 1.002 4.559 2.647l2.495-2.423a8.74 8.74 0 0 0-3.092-2.672 8.706 8.706 0 0 0-3.963-.97c-4.789 0-8.826 3.794-8.826 8.725 0 4.93 4.037 8.723 8.826 8.723a8.7 8.7 0 0 0 3.968-.967 8.742 8.742 0 0 0 3.097-2.674l-2.495-2.422c-1.086 1.644-2.727 2.646-4.569 2.646Z"/>
  </g>
  <defs>
    <linearGradient id="b" x1="13.027" x2="23.873" y1="60.611" y2="-.616" gradientUnits="userSpaceOnUse">
      <stop offset=".05" stop-color="#0541F0"/>
      <stop offset=".21" stop-color="#126CF4"/>
      <stop offset=".44" stop-color="#22A2F9"/>
      <stop offset=".64" stop-color="#2DCAFC"/>
      <stop offset=".8" stop-color="#34E2FE"/>
      <stop offset=".9" stop-color="#37EBFF"/>
    </linearGradient>
    <linearGradient id="c" x1="25.843" x2="36.476" y1="37.317" y2="26.732" gradientUnits="userSpaceOnUse">
      <stop offset=".06" stop-color="#37EBFF"/>
      <stop offset=".19" stop-color="#36E7FF"/>
      <stop offset=".32" stop-color="#32DAFE"/>
      <stop offset=".45" stop-color="#2CC6FC"/>
      <stop offset=".58" stop-color="#23A9F9"/>
      <stop offset=".71" stop-color="#1883F6"/>
      <stop offset=".85" stop-color="#0B56F2"/>
      <stop offset=".9" stop-color="#0541F0"/>
    </linearGradient>
    <linearGradient id="d" x1="30.854" x2="46.429" y1="55.289" y2="12.692" gradientUnits="userSpaceOnUse">
      <stop offset=".05" stop-color="#37EBFF"/>
      <stop offset=".16" stop-color="#2DC8FC"/>
      <stop offset=".34" stop-color="#1F98F8"/>
      <stop offset=".51" stop-color="#1472F4"/>
      <stop offset=".66" stop-color="#0C57F2"/>
      <stop offset=".8" stop-color="#0747F1"/>
      <stop offset=".9" stop-color="#0541F0"/>
    </linearGradient>
    <linearGradient id="e" x1="18.664" x2="40.521" y1="41.329" y2="19.57" gradientUnits="userSpaceOnUse">
      <stop offset=".11" stop-color="#0541F0"/>
      <stop offset=".89" stop-color="#37EBFF"/>
    </linearGradient>
    <clipPath id="a">
      <path fill="#fff" d="M0 0h158.041v64H0z"/>
    </clipPath>
  </defs>
</svg>
